<svg width="104" height="25" viewBox="0 0 104 25" fill="none" xmlns="http://www.w3.org/2000/svg">
<path d="M0.24 24V0.959999H14.112V4.816H4.096V10.56H12.192V14.4H4.096V24H0.24ZM24.6533 24.48C22.9253 24.48 21.4159 24.0907 20.1253 23.312C18.8346 22.5333 17.8319 21.4613 17.1173 20.096C16.4133 18.72 16.0613 17.1413 16.0613 15.36C16.0613 13.5467 16.4239 11.9573 17.1493 10.592C17.8746 9.22667 18.8826 8.16 20.1733 7.392C21.4639 6.624 22.9573 6.24 24.6533 6.24C26.3919 6.24 27.9066 6.62933 29.1973 7.408C30.4879 8.18667 31.4906 9.264 32.2053 10.64C32.9199 12.0053 33.2773 13.5787 33.2773 15.36C33.2773 17.152 32.9146 18.736 32.1893 20.112C31.4746 21.4773 30.4719 22.5493 29.1813 23.328C27.8906 24.096 26.3813 24.48 24.6533 24.48ZM24.6533 20.864C26.1893 20.864 27.3306 20.352 28.0773 19.328C28.8239 18.304 29.1973 16.9813 29.1973 15.36C29.1973 13.6853 28.8186 12.352 28.0613 11.36C27.3039 10.3573 26.1679 9.856 24.6533 9.856C23.6186 9.856 22.7653 10.0907 22.0933 10.56C21.4319 11.0187 20.9413 11.664 20.6213 12.496C20.3013 13.3173 20.1413 14.272 20.1413 15.36C20.1413 17.0347 20.5199 18.3733 21.2773 19.376C22.0453 20.368 23.1706 20.864 24.6533 20.864ZM44.9345 24.48C43.2065 24.48 41.6972 24.0907 40.4065 23.312C39.1158 22.5333 38.1132 21.4613 37.3985 20.096C36.6945 18.72 36.3425 17.1413 36.3425 15.36C36.3425 13.5467 36.7052 11.9573 37.4305 10.592C38.1558 9.22667 39.1638 8.16 40.4545 7.392C41.7452 6.624 43.2385 6.24 44.9345 6.24C46.6732 6.24 48.1878 6.62933 49.4785 7.408C50.7692 8.18667 51.7718 9.264 52.4865 10.64C53.2012 12.0053 53.5585 13.5787 53.5585 15.36C53.5585 17.152 53.1958 18.736 52.4705 20.112C51.7558 21.4773 50.7532 22.5493 49.4625 23.328C48.1718 24.096 46.6625 24.48 44.9345 24.48ZM44.9345 20.864C46.4705 20.864 47.6118 20.352 48.3585 19.328C49.1052 18.304 49.4785 16.9813 49.4785 15.36C49.4785 13.6853 49.0998 12.352 48.3425 11.36C47.5852 10.3573 46.4492 9.856 44.9345 9.856C43.8998 9.856 43.0465 10.0907 42.3745 10.56C41.7132 11.0187 41.2225 11.664 40.9025 12.496C40.5825 13.3173 40.4225 14.272 40.4225 15.36C40.4225 17.0347 40.8012 18.3733 41.5585 19.376C42.3265 20.368 43.4518 20.864 44.9345 20.864ZM64.5118 24.48C62.9224 24.48 61.5358 24.08 60.3518 23.28C59.1678 22.48 58.2504 21.392 57.5998 20.016C56.9491 18.64 56.6238 17.088 56.6238 15.36C56.6238 13.6107 56.9491 12.0533 57.5998 10.688C58.2611 9.312 59.1944 8.22933 60.3998 7.44C61.6051 6.64 63.0238 6.24 64.6558 6.24C66.2984 6.24 67.6744 6.64 68.7838 7.44C69.9038 8.22933 70.7518 9.312 71.3278 10.688C71.9038 12.064 72.1918 13.6213 72.1918 15.36C72.1918 17.0773 71.9038 18.6293 71.3278 20.016C70.7518 21.392 69.8931 22.48 68.7518 23.28C67.6104 24.08 66.1971 24.48 64.5118 24.48ZM65.1038 21.024C66.1384 21.024 66.9704 20.7893 67.5998 20.32C68.2398 19.84 68.7038 19.1733 68.9918 18.32C69.2904 17.4667 69.4398 16.48 69.4398 15.36C69.4398 14.2293 69.2904 13.2427 68.9918 12.4C68.7038 11.5467 68.2504 10.8853 67.6318 10.416C67.0131 9.936 66.2131 9.696 65.2318 9.696C64.1971 9.696 63.3438 9.952 62.6718 10.464C61.9998 10.9653 61.5038 11.648 61.1838 12.512C60.8638 13.3653 60.7038 14.3147 60.7038 15.36C60.7038 16.416 60.8584 17.376 61.1678 18.24C61.4878 19.0933 61.9731 19.7707 62.6238 20.272C63.2744 20.7733 64.1011 21.024 65.1038 21.024ZM69.4398 24V11.872H68.9598V0.959999H72.8478V24H69.4398Z" fill="#181A26"/>
<path d="M78.1538 24V0.959999H82.0098V24H78.1538ZM99.2545 24V15.68C99.2545 15.136 99.2172 14.5333 99.1425 13.872C99.0678 13.2107 98.8918 12.576 98.6145 11.968C98.3478 11.3493 97.9425 10.8427 97.3985 10.448C96.8652 10.0533 96.1398 9.856 95.2225 9.856C94.7318 9.856 94.2465 9.936 93.7665 10.096C93.2865 10.256 92.8492 10.5333 92.4545 10.928C92.0705 11.312 91.7612 11.8453 91.5265 12.528C91.2918 13.2 91.1745 14.064 91.1745 15.12L88.8865 14.144C88.8865 12.672 89.1692 11.3387 89.7345 10.144C90.3105 8.94933 91.1532 8 92.2625 7.296C93.3718 6.58133 94.7372 6.224 96.3585 6.224C97.6385 6.224 98.6945 6.43733 99.5265 6.864C100.359 7.29067 101.02 7.83467 101.51 8.496C102.001 9.15733 102.364 9.86133 102.599 10.608C102.833 11.3547 102.983 12.064 103.047 12.736C103.121 13.3973 103.159 13.936 103.159 14.352V24H99.2545ZM87.2705 24V6.72H90.7105V12.08H91.1745V24H87.2705Z" fill="#002CFF"/>
</svg>
